<svg width="23" height="35" viewBox="0 0 23 35" fill="none" xmlns="http://www.w3.org/2000/svg">
<g clip-path="url(#clip0_9_578)">
<path d="M6.1464 34.3176C9.24266 34.3176 11.7556 31.8047 11.7556 28.7084V23.0992H6.1464C3.05014 23.0992 0.537231 25.6121 0.537231 28.7084C0.537231 31.8047 3.05014 34.3176 6.1464 34.3176Z" fill="#AFAFAF"/>
<path d="M0.537231 17.4901C0.537231 14.3939 3.05014 11.881 6.1464 11.881H11.7556V23.0993H6.1464C3.05014 23.0993 0.537231 20.5864 0.537231 17.4901Z" fill="#AFAFAF"/>
<path d="M0.537109 6.27176C0.537109 3.1755 3.05002 0.662598 6.14628 0.662598H11.7554V11.8809H6.14628C3.05002 11.8809 0.537109 9.36802 0.537109 6.27176Z" fill="#AFAFAF"/>
<path d="M11.7555 0.662598H17.3647C20.4609 0.662598 22.9738 3.1755 22.9738 6.27176C22.9738 9.36802 20.4609 11.8809 17.3647 11.8809H11.7555V0.662598Z" fill="#AFAFAF"/>
<path d="M22.9738 17.4901C22.9738 20.5864 20.4609 23.0993 17.3647 23.0993C14.2684 23.0993 11.7555 20.5864 11.7555 17.4901C11.7555 14.3939 14.2684 11.881 17.3647 11.881C20.4609 11.881 22.9738 14.3939 22.9738 17.4901Z" fill="#AFAFAF"/>
</g>
<defs>
<clipPath id="clip0_9_578">
<rect width="22.4367" height="33.655" fill="white" transform="translate(0.537109 0.662598)"/>
</clipPath>
</defs>
</svg>
