<svg width="49" height="48" viewBox="0 0 49 48" fill="none" xmlns="http://www.w3.org/2000/svg">
<path d="M24.1299 12.0043C24.1299 8.25957 24.1299 4.51807 24.1107 0.776575C24.1107 0.136456 24.3188 -0.0203727 24.9205 0.00203151C29.0543 0.140814 33.0806 1.35422 36.6026 3.52269C39.2478 5.11428 41.5508 7.21496 43.3783 9.70304C47.3886 15.144 48.8833 21.2892 47.7823 27.9208C46.6237 34.9045 42.9814 40.4032 36.9803 44.2439C31.4081 47.7933 25.3269 48.8015 18.8553 47.3772C13.0527 46.097 8.40219 42.986 4.85273 38.2812C1.94674 34.4417 0.302948 29.7954 0.147859 24.9827C0.109452 24.0225 0.115853 24.0225 1.10804 24.0225H12.1245L12.1053 24.0033C12.1917 27.1303 13.1871 29.8892 15.3603 32.1872C18.0808 35.0678 21.4414 36.348 25.3493 35.9543C28.3961 35.6367 31.2067 34.168 33.2071 31.8482C35.2075 29.5283 36.2469 26.5323 36.113 23.472C35.8313 17.0964 30.4479 11.9403 24.1107 11.9755L24.1299 12.0043Z" fill="#B02222"/>
<path d="M12.0959 12.0203H24.1301L24.1109 12.0011C24.1109 15.7554 24.1109 22.4318 24.1109 23.2671C24.1109 24.1025 24.2357 24.0481 23.4292 24.0321C22.6226 24.0161 15.8694 24.0129 12.0927 24.0097V24.0289V11.9979L12.0959 12.0203Z" fill="#B02222"/>
<path d="M12.1181 11.9979H3.38049C5.51209 8.23716 8.39263 5.49105 12.0957 3.24743V12.0203L12.1181 11.9979Z" fill="#B02222"/>
</svg>
