<svg width="35" height="35" viewBox="0 0 35 35" fill="none" xmlns="http://www.w3.org/2000/svg">
<g clip-path="url(#clip0_9_564)">
<path d="M16.6496 0.954156C16.577 0.960757 16.3459 0.983861 16.138 1.00036C11.3415 1.43274 6.84872 4.0204 4.0032 7.99763C2.41869 10.209 1.40526 12.7175 1.02233 15.3744C0.886989 16.3019 0.870483 16.5759 0.870483 17.8334C0.870483 19.0909 0.886989 19.3648 1.02233 20.2923C1.94003 26.6328 6.4526 31.9599 12.5728 33.9337C13.6687 34.2868 14.8241 34.5277 16.138 34.673C16.6496 34.7293 18.8613 34.7293 19.373 34.673C21.6409 34.4221 23.5621 33.861 25.4569 32.894C25.7474 32.7454 25.8035 32.7058 25.7639 32.6728C25.7375 32.653 24.4996 30.9928 23.0141 28.9861L20.3138 25.3389L16.9302 20.3319C15.0684 17.5792 13.5367 15.3282 13.5235 15.3282C13.5103 15.3249 13.4971 17.5495 13.4905 20.2659C13.4806 25.0221 13.4773 25.2135 13.4179 25.3257C13.3321 25.4874 13.266 25.5535 13.1274 25.6261C13.0217 25.6789 12.9293 25.6888 12.4309 25.6888H11.8597L11.7079 25.593C11.6089 25.5303 11.5363 25.4478 11.4868 25.3521L11.4174 25.2036L11.424 18.5859L11.4339 11.9649L11.5363 11.8362C11.5891 11.7669 11.7013 11.6778 11.7805 11.6349C11.9159 11.5688 11.9687 11.5623 12.5398 11.5623C13.2132 11.5623 13.3254 11.5887 13.5004 11.7801C13.5499 11.8329 15.382 14.5922 17.5739 17.9159C19.7658 21.2396 22.7632 25.7779 24.2355 28.0058L26.9093 32.0556L27.0447 31.9665C28.243 31.1876 29.5106 30.0785 30.5141 28.9233C32.6499 26.471 34.0265 23.4807 34.4886 20.2923C34.624 19.3648 34.6405 19.0909 34.6405 17.8334C34.6405 16.5759 34.624 16.3019 34.4886 15.3744C33.5709 9.034 29.0584 3.70685 22.9382 1.7331C21.8587 1.38323 20.71 1.14229 19.4225 0.997064C19.1056 0.964058 16.9236 0.927751 16.6496 0.954156ZM23.5621 11.1662C23.7205 11.2454 23.8493 11.3972 23.8955 11.5556C23.9219 11.6415 23.9285 13.4766 23.9219 17.6122L23.912 23.5467L22.8656 21.9426L21.8158 20.3385V16.0247C21.8158 13.2357 21.829 11.6679 21.8488 11.592C21.9016 11.4071 22.0172 11.2619 22.1756 11.1761C22.311 11.1068 22.3605 11.1002 22.8788 11.1002C23.3673 11.1002 23.4531 11.1068 23.5621 11.1662Z" fill="#AFAFAF"/>
</g>
<defs>
<clipPath id="clip0_9_564">
<rect width="33.77" height="33.77" fill="white" transform="translate(0.870483 0.945068)"/>
</clipPath>
</defs>
</svg>
