<svg width="34" height="33" viewBox="0 0 34 33" fill="none" xmlns="http://www.w3.org/2000/svg">
<path fill-rule="evenodd" clip-rule="evenodd" d="M28.0003 0.0272217H6.19055C2.88391 0.0272217 0.210449 2.70068 0.210449 6.00733V26.9729C0.210449 30.2795 2.88391 32.953 6.19055 32.953H28.0003C31.307 32.953 33.9804 30.2795 33.9804 26.9729V6.00733C33.9804 2.70068 31.307 0.0272217 28.0003 0.0272217ZM7.80859 8.63862V23.1175C7.80859 23.2441 7.86488 23.3004 7.97744 23.3004H10.7072C10.8057 23.2864 10.876 23.2019 10.862 23.1034V18.5867C11.1293 18.5867 11.3263 18.5867 11.467 18.6008C11.6077 18.6148 11.8329 18.6148 12.1706 18.6148C13.3244 18.6148 14.3797 18.4882 15.3365 18.1364C16.2511 17.7987 17.0391 17.2078 17.6019 16.4198C18.1647 15.6318 18.4461 14.6328 18.4461 13.4227C18.4461 12.7895 18.3336 12.1845 18.1225 11.5935C17.8974 10.9884 17.5456 10.4397 17.0953 9.98942C16.5607 9.4688 15.9134 9.07481 15.2099 8.83561C14.4219 8.54012 13.4651 8.39941 12.3113 8.39941C11.8891 8.39941 11.467 8.39941 11.0308 8.41348C10.8202 8.42028 10.6162 8.42379 10.4187 8.42719C10.2072 8.43083 10.0032 8.43435 9.80665 8.44163C9.62239 8.44845 9.44476 8.45197 9.27214 8.45538C9.08883 8.45901 8.91119 8.46252 8.73727 8.46977C8.41364 8.48384 8.18851 8.48384 7.9493 8.48384C7.85081 8.48384 7.80859 8.54012 7.80859 8.63862ZM10.876 15.9273V11.1995C10.9745 11.1854 11.1715 11.1714 11.4529 11.1854C11.7203 11.1714 12.0439 11.1714 12.4098 11.1714C12.9867 11.1573 13.5495 11.2417 14.0701 11.4528C14.4782 11.6076 14.8159 11.889 15.0551 12.2548C15.2802 12.6347 15.3928 13.0709 15.3787 13.5071C15.3787 14.1262 15.238 14.6047 14.9425 14.9564C14.6329 15.3082 14.239 15.5755 13.7887 15.7022C13.2681 15.871 12.7193 15.9555 12.1706 15.9555H11.4248C11.2681 15.9555 11.0992 15.9433 10.9183 15.9303C10.9043 15.9293 10.8902 15.9283 10.876 15.9273ZM25.8755 14.5906C26.354 14.6891 26.8042 14.8439 27.2263 15.069C27.2826 15.0971 27.353 15.0971 27.4796 15.069C27.5218 15.0408 27.55 14.9846 27.55 14.9283V12.6347C27.55 12.5785 27.5359 12.5222 27.5218 12.4659C27.4937 12.4096 27.4374 12.3533 27.3811 12.3392C27.0012 12.1845 26.5932 12.0719 26.171 12.0156C25.5941 11.9312 25.0032 11.889 24.4262 11.889C23.4272 11.889 22.597 12.0438 21.9357 12.3815C21.3307 12.6629 20.81 13.1131 20.4583 13.676C20.1487 14.1966 19.9799 14.7735 19.9799 15.3785C19.9658 15.871 20.0784 16.3635 20.3035 16.8138C20.5708 17.2922 20.9367 17.7002 21.3729 18.0098C21.992 18.4319 22.6533 18.7696 23.3709 19.0229C24.0604 19.2902 24.5247 19.5013 24.7499 19.6842C24.975 19.8671 25.0876 20.0501 25.0876 20.2471C25.0876 20.5003 24.9328 20.7395 24.7077 20.838C24.4544 20.9647 24.0745 21.035 23.5398 21.035C22.977 21.035 22.4141 20.9647 21.8794 20.824C21.2603 20.6833 20.6834 20.4581 20.1346 20.1345C20.0924 20.1063 20.0502 20.0923 20.008 20.1204C19.9658 20.1486 19.9517 20.2048 19.9517 20.2471V22.6954C19.9377 22.8079 20.008 22.9064 20.1065 22.9627C20.5568 23.1738 21.0492 23.3286 21.5417 23.413C22.1749 23.5396 22.8081 23.5959 23.4554 23.5959C24.4685 23.5959 25.3127 23.4411 26.0022 23.1456C26.6354 22.8924 27.1841 22.4562 27.5781 21.8933C27.944 21.3446 28.1409 20.6833 28.1269 20.0219C28.1409 19.5154 28.0284 19.0229 27.8032 18.5726C27.5359 18.0942 27.156 17.7002 26.6917 17.4047C26.0163 16.9826 25.2846 16.6308 24.5247 16.3776C24.187 16.2369 23.8493 16.0821 23.5257 15.9132C23.3428 15.8147 23.1739 15.6881 23.0473 15.5333C22.9629 15.4208 22.9066 15.2941 22.9066 15.1675C22.9066 15.0408 22.9488 14.9001 23.0192 14.7876C23.1177 14.6469 23.2724 14.5484 23.4554 14.5062C23.7227 14.4358 24.0182 14.3936 24.2996 14.4077C24.8343 14.4077 25.3549 14.478 25.8755 14.5906Z" fill="#AFAFAF"/>
</svg>
