<svg width="35" height="35" viewBox="0 0 35 35" fill="none" xmlns="http://www.w3.org/2000/svg">
<g clip-path="url(#clip0_9_586)">
<path d="M11.2264 4.64196C11.2285 4.93469 11.3172 5.22024 11.4814 5.46262C11.6455 5.70501 11.8778 5.89336 12.1488 6.00394C12.4198 6.11452 12.7176 6.14237 13.0044 6.08399C13.2913 6.02561 13.5544 5.8836 13.7607 5.67587C13.9669 5.46815 14.1071 5.204 14.1634 4.91675C14.2198 4.62949 14.1898 4.33198 14.0773 4.06172C13.9648 3.79147 13.7748 3.56058 13.5313 3.39816C13.2877 3.23573 13.0015 3.14906 12.7088 3.14905C12.3147 3.15202 11.9378 3.31059 11.6602 3.59023C11.3825 3.86986 11.2266 4.2479 11.2264 4.64196Z" fill="#AFAFAF"/>
<path d="M0.530518 17.2024C0.544588 17.1559 0.555845 17.1081 0.562177 17.0602C0.588208 16.5699 0.593836 16.0739 0.646602 15.5828C0.728916 13.9928 1.25939 12.4591 2.17681 11.1575C2.59037 10.5978 3.1295 10.143 3.75084 9.82956C4.37218 9.51614 5.0584 9.35289 5.75431 9.35294H17.1411C17.3628 9.35294 17.3628 9.35294 17.3628 9.13132V8.33984C17.3628 8.17662 17.3149 8.14003 17.1622 8.14003H9.41132C9.27906 8.14003 9.23192 8.10274 9.23192 7.96555V4.09889C9.25725 3.53887 9.49082 3.0084 9.88622 2.6109C10.4113 2.05202 11.0651 1.63007 11.7907 1.38181C12.6768 1.06322 13.598 0.852518 14.5345 0.754251C15.8146 0.608094 17.1047 0.569264 18.3913 0.638167C19.7787 0.664198 21.1513 0.91888 22.455 1.39236C23.3492 1.69394 24.1395 2.24282 24.7345 2.97533C25.2128 3.59084 25.4493 4.36012 25.3993 5.13802C25.3676 5.79231 25.3993 6.45153 25.3993 7.11075V10.7621C25.3993 11.479 25.3993 12.2016 25.3677 12.9136C25.3625 13.6857 25.1232 14.438 24.6812 15.0712C24.2393 15.7043 23.6156 16.1884 22.8926 16.4594C22.1912 16.7466 21.4392 16.8899 20.6814 16.8808H12.6188C11.7662 16.8645 10.9259 17.0854 10.1916 17.5189C9.2525 18.1091 8.58352 19.0453 8.32928 20.1249C8.17628 20.6691 8.0998 21.2319 8.10203 21.7972V25.4528C8.10203 25.6955 8.10203 25.6906 7.85931 25.6955C6.9834 25.6955 6.10749 25.7222 5.22103 25.6955C4.35348 25.6605 3.526 25.321 2.88386 24.7366C2.13742 24.0577 1.58091 23.1959 1.26924 22.2362C0.953361 21.3638 0.752796 20.454 0.672633 19.5297C0.619867 18.9387 0.598761 18.3477 0.562177 17.7624C0.555318 17.6969 0.544748 17.6318 0.530518 17.5675V17.2024Z" fill="#AFAFAF"/>
<path d="M34.3004 17.7722C34.2863 17.8186 34.2751 17.8665 34.2687 17.915C34.2427 18.4054 34.2371 18.9014 34.1843 19.3924C34.1019 20.9823 33.5714 22.5165 32.6541 23.8177C32.2411 24.3783 31.7022 24.8341 31.0808 25.1484C30.4594 25.4627 29.7729 25.6267 29.0766 25.6272H17.6898C17.4682 25.6272 17.4682 25.6272 17.4682 25.8488V26.6403C17.4682 26.8035 17.516 26.8408 17.6687 26.8408H25.4203C25.5518 26.8408 25.5997 26.8774 25.5997 27.0146V30.8813C25.5739 31.4413 25.3407 31.9717 24.9454 32.3693C24.4201 32.9282 23.766 33.3502 23.0402 33.5983C22.1559 33.9165 21.2366 34.1272 20.302 34.2259C19.0216 34.3722 17.7313 34.4109 16.4445 34.342C15.0579 34.3163 13.685 34.0615 12.3815 33.5878C11.4874 33.2862 10.697 32.7373 10.1021 32.0048C9.62377 31.3893 9.38728 30.62 9.43723 29.8421C9.46889 29.1878 9.43723 28.5286 9.43723 27.8694V24.218C9.43723 23.5011 9.43723 22.7786 9.46889 22.0666C9.47387 21.2946 9.71309 20.5422 10.1549 19.9091C10.5967 19.2759 11.2203 18.7918 11.9432 18.5207C12.6447 18.2336 13.3966 18.0903 14.1545 18.0993H22.2121C23.0647 18.1156 23.905 17.8947 24.6394 17.4612C25.5795 16.8696 26.2487 15.9313 26.5016 14.8497C26.6546 14.3055 26.7311 13.7426 26.7289 13.1773V9.52175C26.7289 9.27902 26.7289 9.28465 26.9716 9.27903C27.8475 9.27903 28.7234 9.25299 29.6099 9.27903C30.4776 9.31442 31.3051 9.65444 31.947 10.2394C32.6935 10.9183 33.25 11.7801 33.5617 12.7397C33.8764 13.6155 34.0751 14.5287 34.1526 15.4561C34.2054 16.0471 34.2265 16.6381 34.2638 17.2234C34.2708 17.2874 34.2814 17.3508 34.2955 17.4134C34.299 17.5295 34.3004 17.6491 34.3004 17.7722Z" fill="#AFAFAF"/>
<path d="M23.6046 30.1483C23.6046 30.542 23.4482 30.9196 23.1698 31.198C22.8914 31.4764 22.5138 31.6328 22.1201 31.6328C21.7264 31.6328 21.3488 31.4764 21.0704 31.198C20.792 30.9196 20.6356 30.542 20.6356 30.1483C20.6356 29.7546 20.792 29.377 21.0704 29.0986C21.3488 28.8202 21.7264 28.6638 22.1201 28.6638C22.5138 28.6638 22.8914 28.8202 23.1698 29.0986C23.4482 29.377 23.6046 29.7546 23.6046 30.1483Z" fill="#AFAFAF"/>
</g>
<defs>
<clipPath id="clip0_9_586">
<rect width="33.77" height="33.77" fill="white" transform="translate(0.530518 0.605103)"/>
</clipPath>
</defs>
</svg>
