<svg width="35" height="35" viewBox="0 0 35 35" fill="none" xmlns="http://www.w3.org/2000/svg">
<g clip-path="url(#clip0_9_561)">
<path fill-rule="evenodd" clip-rule="evenodd" d="M1.20862 1.20886V34.3963C1.47245 34.418 1.46981 34.4583 1.56716 34.4583C11.1359 34.4612 20.7382 34.4612 30.307 34.4612C31.6246 34.4612 32.9081 34.4623 34.2259 34.4583C34.3125 34.4581 34.4512 34.418 34.4512 34.3963L34.451 1.20886H1.20862ZM31.285 17.8073V30.6165C31.285 31.0618 31.2183 31.0214 30.789 31.0214H5.10562C4.67638 31.0214 4.63838 31.0621 4.63838 30.6167V4.96577C4.63838 4.52017 4.67638 4.3748 5.13807 4.3748H30.7566C31.2185 4.3748 31.285 4.52017 31.285 4.99823V17.8073ZM17.939 11.5952C17.8826 11.4206 17.7776 11.4116 17.6243 11.4124C16.8027 11.4174 15.9809 11.4306 15.1599 11.4124C14.9002 11.4069 14.7876 11.4847 14.7074 11.7377C13.5505 15.3746 12.3812 19.0091 11.2161 22.6433C11.0262 23.2359 10.8423 23.8308 10.6397 24.474C11.4077 24.474 12.1095 24.4635 12.8107 24.4809C13.049 24.4867 13.1482 24.4083 13.2131 24.1838C13.5133 23.1485 13.8383 22.1204 14.1357 21.0844C14.2056 20.84 14.3188 20.7741 14.5644 20.777C15.7316 20.7907 16.8993 20.7907 18.0664 20.777C18.2936 20.7744 18.3859 20.8477 18.4503 21.0572C18.7703 22.099 19.1104 23.1346 19.4302 24.1764C19.4964 24.3917 19.5795 24.4745 19.8278 24.4566C20.1729 24.4338 20.5187 24.4235 20.8646 24.4257H22.0761L22.0706 24.3384C20.6929 20.0889 19.3133 15.8458 17.939 11.5952ZM14.6641 18.8853C15.2015 17.0385 15.735 15.2319 16.2605 13.4389C16.8022 15.2255 17.3531 17.0385 17.9121 18.8853H14.6641ZM22.5787 24.4257H25.217V14.9279H22.5787V24.4257ZM23.9166 11.1169C23.1348 11.1177 22.5576 11.6728 22.5629 12.4192C22.5681 13.1677 23.1227 13.7006 23.897 13.7019C24.702 13.703 25.2711 13.1703 25.2655 12.4208C25.2597 11.653 24.7044 11.1161 23.9166 11.1169Z" fill="#AFAFAF"/>
</g>
<defs>
<clipPath id="clip0_9_561">
<rect width="33.77" height="33.77" fill="white" transform="translate(0.945068 0.945068)"/>
</clipPath>
</defs>
</svg>
