<svg width="35" height="35" viewBox="0 0 35 35" fill="none" xmlns="http://www.w3.org/2000/svg">
<g clip-path="url(#clip0_9_567)">
<path fill-rule="evenodd" clip-rule="evenodd" d="M34.3005 17.8301C34.3005 27.1554 26.7408 34.7151 17.4155 34.7151C8.09019 34.7151 0.530518 27.1554 0.530518 17.8301C0.530518 8.50474 8.09019 0.945068 17.4155 0.945068C26.7408 0.945068 34.3005 8.50474 34.3005 17.8301ZM20.8449 20.6478L22.3751 15.825H22.3646C23.04 13.9993 24.3697 12.2792 26.9024 12.2792L23.3144 20.9961C23.0028 21.9837 22.3848 22.8465 21.5499 23.4594C20.715 24.0723 19.7067 24.4034 18.671 24.4047C18.671 24.4047 17.6157 16.912 17.6157 16.7431L16.0327 20.8589C15.3257 22.6846 13.9537 24.4047 11.421 24.4047L9.43701 12.2897C10.4027 12.3139 11.326 12.6914 12.032 13.3508C12.738 14.0101 13.1777 14.9054 13.2678 15.8672C13.2678 15.8672 13.5316 20.3101 13.5316 20.6584L15.3995 15.825C16.0749 13.9993 17.3624 12.2792 19.7896 12.2792C19.7896 12.2792 20.8449 20.2784 20.8449 20.6478Z" fill="#AFAFAF"/>
</g>
<defs>
<clipPath id="clip0_9_567">
<rect width="33.77" height="33.77" fill="white" transform="translate(0.530518 0.945068)"/>
</clipPath>
</defs>
</svg>
